<?xml version="1.0" encoding="iso-8859-1"?>
<!-- Generator: Adobe Illustrator 22.1.0, SVG Export Plug-In . SVG Version: 6.00 Build 0)  -->
<svg version="1.1" id="Layer_1" xmlns="http://www.w3.org/2000/svg" xmlns:xlink="http://www.w3.org/1999/xlink" x="0px" y="0px"
	 viewBox="0 0 317.559 78.663" style="enable-background:new 0 0 317.559 78.663;" xml:space="preserve">
<path style="fill:#F5F5F5;" d="M223.295,32.34c1.515-0.012,4.107,0.334,4.102,2.299c-0.009,1.974-2.084,3.361-4.106,3.429
	L223.295,32.34z M223.281,40.329c2.624-0.142,4.794,0.89,4.813,2.704c-0.013,1.956-2.623,3.238-4.831,3.418L223.281,40.329z
	 M220.219,49.242c8.462-0.014,12.951-3.255,12.965-6.397c0.009-2.519-2.656-3.823-4.675-4.166v-0.18
	c3.104-1.315,3.69-3.119,3.696-4.168c-0.01-1.516-0.689-3.748-6.817-4.376c-1.889-0.139-3.718-0.28-6.969-0.27
	c0.179,0.618,0.184,5.333,0.175,6.191l-0.005,3.094c-0.005,0.526-0.009,8.807-0.19,10.255L220.219,49.242z M264.39,49.468
	c-0.088-0.963,0.087-11.127,0.087-12.026c0.363,0.457,12.696,10.837,15.01,12.353l0.177-0.061c0.071-2.431,0.358-6.664,0.523-10.618
	c0.285-4.032,0.476-7.784,0.661-9.384l-4.655-0.189c0,1.174-0.116,10.813-0.116,11.962c-0.964-0.787-12.258-10.366-14.962-12.376
	l-0.196,0.088c-0.185,1.668-0.487,6.168-0.751,10.52c-0.145,4.361-0.436,8.538-0.533,9.594L264.39,49.468z M289.695,49.57
	c-0.093-0.547-0.181-6.78-0.181-8.86l0.01-0.978l0.196,0.009c1.795,2.37,8.387,9.46,8.74,9.927l3.787-3.26
	c-1.046-1.124-6.473-6.241-7.518-7.295c1.546-1.464,5.847-5.331,7.015-6.478l-3.517-3.09c-0.612,0.748-6.945,7.305-8.52,9.143
	l-0.188-0.017v-0.924c0.007-2.478,0.121-7.813,0.2-8.262l-5.189-0.001c-0.013,0.616,0.075,6.127,0.075,8.495l-0.004,3.002
	c-0.015,3.114-0.104,7.808-0.112,8.582L289.695,49.57z M49.426,51.091l6.327,2.718l-0.764,1.841l-5.844-1.976l-5.85,3.031
	l-5.429-2.394l-5.589,2.737l-6.024-2.876l-5.716,2.343l-0.94-1.751l6.294-3.09l6.96,2.465l4.826-2.596l4.945,2.324L49.426,51.091z
	 M37.482,19.926l7.473,7.774l-6.733-1.095l8.983,8.909l-9.577-1.949l9.182,9.057l-10.407-2.215l1.392,8.513l-4.329-0.004
	l1.144-8.377l-7.781,4.365l6.183-10.963l-6.784,3.428l8.172-11.694l-5.088,1.343L37.482,19.926z M18.888,15.309l-2.102,0.143
	l-1.57,11.211l0.39,13.708l-0.21,13.522l-0.237,9.242l12.39-0.135l16.637,0.351l11.417-0.888l4.593-0.515l-0.379-19.875
	l-1.472-11.76l0.799-13.318l-28.456-1.517L18.888,15.309z M93.705,34.41c0.007-2.058,0.015-3.971,0.015-4.56l-4.933-0.009
	c0.082,0.963,0.224,2.709,0.214,4.566v0.977c-0.007,4.976-0.093,6.941-1.103,8.432c-0.746,1.05-1.913,1.758-3.448,1.752
	c-1.285-0.008-2.523-0.473-3.304-1.648c-1.057-1.445-1.3-3.342-1.286-7.408l0.007-1.751c0.011-2.414,0.093-3.858,0.235-4.507
	l-5.09,0.005c0,0.588,0.004,2.708,0,3.882l-0.006,1.419c0.002,6.495,0.441,8.444,1.805,10.406c2.024,2.881,5.308,3.224,7.285,3.232
	c3.047,0.002,5.467-0.943,7.238-2.91c2.073-2.417,2.362-5.53,2.376-10.649L93.705,34.41z M98.549,49.538
	c0.407-1.123,3.37-9.863,3.876-11.082l0.036,0.004c0.488,1.069,3.64,6.404,5.6,9.38l0.121-0.009c1.775-2.266,5.91-8.738,6.543-9.495
	c0.314,0.62,3.534,9.08,4.483,11.2l4.265-1.814c-0.974-1.981-6.267-14.367-7.831-17.558l-0.128,0.004
	c-1.125,1.695-5.847,9.331-6.881,10.79c-0.825-1.285-5.386-9.095-6.768-11.392l-0.164,0.01c-1.031,2.294-6.814,17.404-7.345,18.478
	L98.549,49.538z M130.71,33.016c4.107,0.125,4.785,2.092,4.783,3.448c-0.005,2.476-2.407,4.013-4.794,4.504L130.71,33.016z
	 M130.685,49.125c-0.007-0.486-0.004-3.511,0.007-4.042l0.011-1.117c6.267-1.035,9.799-4.544,9.806-8.196
	c0.003-3.048-2.494-4.653-5.807-5.315c-2.084-0.432-5.217-0.596-8.988-0.594c0.004,0.431,0.163,6.006,0.155,6.644l-0.008,2.984
	c0,1.895-0.091,8.528-0.168,9.637L130.685,49.125z M147.649,39.834c0.011-3.444,1.971-6.688,6.004-6.695
	c2.705,0.013,5.268,1.899,5.253,5.941c0,4.51-2.841,6.735-5.839,6.735C150.24,45.819,147.646,43.865,147.649,39.834 M164.891,47.93
	c-2.005-0.094-4.086-0.218-6.277-0.411l0.007-0.11c3.584-1.845,5.488-5.088,5.492-8.622c0.015-5.519-3.997-9.062-10.1-9.063
	c-7.182,0.008-11.582,4.96-11.587,10.314c-0.018,2.464,0.968,4.986,3.16,6.785c2.772,2.292,6.692,2.371,7.033,2.374
	c0.258,0.003,1,0.055,2.159,0.278c3.081,0.597,6.553,1.404,9.516,2.012L164.891,47.93z M185.567,34.404
	c-0.005-2.057-0.005-3.964-0.005-4.555l-4.896-0.003c0.007,0.956,0.088,2.709,0.082,4.563l-0.008,0.969
	c0,4.98-0.01,6.945-1.071,8.435c-0.731,1.046-1.866,1.75-3.357,1.749c-1.378-0.001-2.531-0.474-3.298-1.648
	c-1.168-1.445-1.288-3.345-1.274-7.401v-1.762c0.005-2.403,0.011-3.857,0.076-4.494l-4.948,0.004c0,0.575-0.064,2.696-0.068,3.882
	l-0.002,1.423c0,6.481,0.532,8.436,1.881,10.403c1.995,2.875,5.343,3.221,7.22,3.232c3.097-0.013,5.511-0.94,7.221-2.914
	c2.095-2.416,2.43-5.522,2.441-10.645L185.567,34.404z M194.009,41.566c0.543-1.06,2.384-4.788,2.984-5.824
	c0.49,0.849,2.434,4.406,3.117,5.56L194.009,41.566z M190.159,49.411c0.688-1.063,2.145-4.234,2.405-4.77l8.869-0.424
	c0.333,0.413,2.448,3.974,3.023,5.196l4.33-2.46c-1.485-2.036-8.62-13.482-11.572-17.858l-0.207,0.011
	c-1.888,2.841-9.755,16.239-10.889,18.134L190.159,49.411z M242.548,41.561c0.543-1.06,2.384-4.788,2.984-5.824
	c0.49,0.849,2.434,4.406,3.117,5.56L242.548,41.561z M238.697,49.406c0.688-1.063,2.145-4.234,2.405-4.77l8.869-0.424
	c0.332,0.413,2.448,3.974,3.023,5.196l4.33-2.46c-1.485-2.036-8.62-13.482-11.572-17.858l-0.207,0.011
	c-1.888,2.841-9.755,16.239-10.889,18.134L238.697,49.406z"/>
</svg>
